<?xml version="1.0" encoding="UTF-8" standalone="no"?>
<!-- Created with Inkscape (http://www.inkscape.org/) -->

<svg
   xmlns:dc="http://purl.org/dc/elements/1.1/"
   xmlns:cc="http://creativecommons.org/ns#"
   xmlns:rdf="http://www.w3.org/1999/02/22-rdf-syntax-ns#"
   xmlns:svg="http://www.w3.org/2000/svg"
   xmlns="http://www.w3.org/2000/svg"
   xmlns:sodipodi="http://sodipodi.sourceforge.net/DTD/sodipodi-0.dtd"
   xmlns:inkscape="http://www.inkscape.org/namespaces/inkscape"
   width="210mm"
   height="297mm"
   viewBox="0 0 744.09448819 1052.3622047"
   id="svg2"
   version="1.1"
   inkscape:version="0.91 r13725"
   sodipodi:docname="pokeball.svg"
   inkscape:export-filename="C:\Users\Melanie\Desktop\favicon.png"
   inkscape:export-xdpi="80"
   inkscape:export-ydpi="80">
  <defs
     id="defs4">
    <inkscape:perspective
       sodipodi:type="inkscape:persp3d"
       inkscape:vp_x="0 : 526.1811 : 1"
       inkscape:vp_y="0 : 1000 : 0"
       inkscape:vp_z="744.09449 : 526.1811 : 1"
       inkscape:persp3d-origin="372.04724 : 350.7874 : 1"
       id="perspective3342" />
  </defs>
  <sodipodi:namedview
     id="base"
     pagecolor="#ffffff"
     bordercolor="#666666"
     borderopacity="1.0"
     inkscape:pageopacity="0.0"
     inkscape:pageshadow="2"
     inkscape:zoom="22.627417"
     inkscape:cx="3.8584214"
     inkscape:cy="9.24778"
     inkscape:document-units="px"
     inkscape:current-layer="layer1"
     showgrid="false"
     showborder="false"
     inkscape:snap-intersection-paths="false"
     showguides="false"
     inkscape:snap-global="true"
     inkscape:snap-nodes="true"
     inkscape:object-nodes="true"
     inkscape:window-width="1920"
     inkscape:window-height="1017"
     inkscape:window-x="-8"
     inkscape:window-y="-8"
     inkscape:window-maximized="1" />
  <metadata
     id="metadata7">
    <rdf:RDF>
      <cc:Work
         rdf:about="">
        <dc:format>image/svg+xml</dc:format>
        <dc:type
           rdf:resource="http://purl.org/dc/dcmitype/StillImage" />
        <dc:title />
      </cc:Work>
    </rdf:RDF>
  </metadata>
  <g
     inkscape:groupmode="layer"
     id="layer2"
     inkscape:label="Ball"
     style="display:inline">
    <path
       style="fill:#ececec;stroke:none;stroke-width:0;stroke-miterlimit:4;stroke-dasharray:none"
       d="m 8.4798992,1052.3488 c -0.6298489,-0.035 -1.3653066,-0.1622 -1.9916975,-0.3425 -3.3234897,-0.9572 -5.83744599,-3.7873 -6.38303218,-7.1858 -0.09243104,-0.576 -0.10514148227,-0.7519 -0.10514148227,-1.4585 17.97324096227,0 -0.03420602773,0 17.99939096227,0 0,0.6172 -0.02748,0.957 -0.123077,1.5226 -0.586334,3.4687 -3.192114,6.3014 -6.611446,7.1871 -0.889983,0.2305 -1.8757052,0.3286 -2.7849968,0.2772 z"
       id="path3365"
       inkscape:connector-curvature="0"
       sodipodi:nodetypes="cscccsssc" />
    <path
       inkscape:connector-curvature="0"
       id="path4167"
       d="m 0,1043.362 c 0,-0.7067 0.01271044,-0.8826 0.10514149,-1.4585 0.39252821,-2.4452 1.82158321,-4.6549 3.89995471,-6.0305 0.411893,-0.2727 0.5729323,-0.3659 1.0013488,-0.5794 1.591459,-0.7935 3.445295,-1.0942 5.222756,-0.8472 1.112724,0.1546 2.15656,0.5007 3.117085,1.0336 2.410806,1.3374 4.076378,3.6756 4.530028,6.3594 0.09561,0.5656 0.123077,0.9054 0.123077,1.5226 -16.4143527,0 -2.287851,0 -17.999391,0 z"
       style="fill:#ff5555;stroke:none;stroke-width:0;stroke-miterlimit:4;stroke-dasharray:none"
       sodipodi:nodetypes="ccssssccc" />
  </g>
  <g
     inkscape:groupmode="layer"
     id="layer3"
     inkscape:label="Rim"
     style="display:inline;opacity:0.98999999">
    <path
       style="display:inline;fill:#333333;stroke:none;stroke-width:0;stroke-miterlimit:4;stroke-dasharray:none"
       d="M 0.01825373,1042.5839 C 0.00311336,1042.7883 0,1043.0091 0,1043.3624 c 0,0.3533 0.00311336,0.5742 0.01825373,0.7785 l 17.95619427,0 c 0.01866,-0.2312 0.02546,-0.4712 0.02555,-0.7766 0,-8e-4 -1e-6,0 0,0 -1e-6,0 0,0 0,0 -9.7e-5,-0.3055 -0.0069,-0.5436 -0.02555,-0.7749 l -17.95619427,0 z"
       id="path4167-2"
       inkscape:connector-curvature="0" />
  </g>
  <g
     inkscape:label="Circle"
     inkscape:groupmode="layer"
     id="layer1"
     style="display:inline">
    <ellipse
       style="fill:#f9f9f9;stroke:#333333;stroke-width:1.15911388;stroke-miterlimit:4;stroke-dasharray:none;stroke-opacity:1"
       id="path4169"
       cx="8.9997301"
       cy="1043.3622"
       rx="2.4737589"
       ry="2.4707162" />
  </g>
</svg>
