<?xml version="1.0" encoding="UTF-8" standalone="no"?>
<!-- Created with Inkscape (http://www.inkscape.org/) -->

<svg
   xmlns:dc="http://purl.org/dc/elements/1.1/"
   xmlns:cc="http://creativecommons.org/ns#"
   xmlns:rdf="http://www.w3.org/1999/02/22-rdf-syntax-ns#"
   xmlns:svg="http://www.w3.org/2000/svg"
   xmlns="http://www.w3.org/2000/svg"
   xmlns:sodipodi="http://sodipodi.sourceforge.net/DTD/sodipodi-0.dtd"
   xmlns:inkscape="http://www.inkscape.org/namespaces/inkscape"
   width="18"
   height="26.000044"
   viewBox="0 0 18 26.000043"
   id="svg2"
   version="1.1"
   inkscape:version="0.91 r13725"
   sodipodi:docname="pokeball-marker.svg"
   inkscape:export-filename="C:\Users\Melanie\Desktop\pokeball.png"
   inkscape:export-xdpi="320"
   inkscape:export-ydpi="320">
  <defs
     id="defs4">
    <inkscape:perspective
       sodipodi:type="inkscape:persp3d"
       inkscape:vp_x="0 : 526.18107 : 1"
       inkscape:vp_y="0 : 999.99995 : 0"
       inkscape:vp_z="744.09448 : 526.18107 : 1"
       inkscape:persp3d-origin="372.04724 : 350.78738 : 1"
       id="perspective3342" />
  </defs>
  <sodipodi:namedview
     id="base"
     pagecolor="#ffffff"
     bordercolor="#666666"
     borderopacity="1.0"
     inkscape:pageopacity="0.0"
     inkscape:pageshadow="2"
     inkscape:zoom="5.6568543"
     inkscape:cx="-14.366971"
     inkscape:cy="15.499791"
     inkscape:document-units="px"
     inkscape:current-layer="layer4"
     showgrid="false"
     showborder="false"
     inkscape:snap-intersection-paths="false"
     showguides="false"
     inkscape:snap-global="true"
     inkscape:snap-nodes="true"
     inkscape:object-nodes="true"
     inkscape:window-width="1920"
     inkscape:window-height="1017"
     inkscape:window-x="-8"
     inkscape:window-y="-8"
     inkscape:window-maximized="1"
     fit-margin-top="0"
     fit-margin-left="0"
     fit-margin-right="0"
     fit-margin-bottom="0"
     units="px" />
  <metadata
     id="metadata7">
    <rdf:RDF>
      <cc:Work
         rdf:about="">
        <dc:format>image/svg+xml</dc:format>
        <dc:type
           rdf:resource="http://purl.org/dc/dcmitype/StillImage" />
        <dc:title></dc:title>
      </cc:Work>
    </rdf:RDF>
  </metadata>
  <g
     inkscape:groupmode="layer"
     id="layer4"
     inkscape:label="Point"
     transform="translate(0,-1025.3457)">
    <path
       sodipodi:type="star"
       style="display:inline;fill:#333333;fill-opacity:1;stroke:none;stroke-width:1.24100006;stroke-miterlimit:4;stroke-dasharray:none;stroke-opacity:1"
       id="path4144"
       sodipodi:sides="3"
       sodipodi:cx="9.2413454"
       sodipodi:cy="1049.183"
       sodipodi:r1="10.084119"
       sodipodi:r2="5.0420594"
       sodipodi:arg1="1.5707963"
       sodipodi:arg2="2.6179939"
       inkscape:flatsided="false"
       inkscape:rounded="0"
       inkscape:randomized="0"
       d="m 9.2413457,1059.2671 -4.3665519,-7.5631 -4.36655162,-7.5631 8.73310332,0 8.7331025,0 -4.366551,7.5631 z"
       inkscape:transform-center-y="2.6904757"
       transform="matrix(1.0295175,0,0,1.0671047,-0.50500897,-79.003169)" />
  </g>
  <g
     inkscape:groupmode="layer"
     id="layer2"
     inkscape:label="Ball"
     style="display:inline"
     transform="translate(0,-1025.3457)">
    <path
       style="fill:#ececec;stroke:none;stroke-width:0;stroke-miterlimit:4;stroke-dasharray:none"
       d="m 8.4713086,1043.4796 c -0.6292108,-0.035 -1.3639234,-0.1635 -1.9896798,-0.3453 -3.3201228,-0.965 -5.83153234,-3.8183 -6.37656582,-7.2446 -0.0923374,-0.5807 -0.105034970674,-0.7581 -0.105034970674,-1.4705 17.955032990674,0 -0.03417137933,0 17.981156990674,0 0,0.6223 -0.02745,0.9648 -0.122953,1.5351 -0.58574,3.4971 -3.18888,6.353 -6.604748,7.2461 -0.889081,0.2324 -1.8738049,0.3312 -2.7821754,0.2793 z"
       id="path3365"
       inkscape:connector-curvature="0"
       sodipodi:nodetypes="cscccsssc" />
    <path
       inkscape:connector-curvature="0"
       id="path4167"
       d="m 0,1034.4192 c 0,-0.7124 0.01269756,-0.8897 0.10503498,-1.4704 0.39213056,-2.4653 1.81973782,-4.693 3.89600382,-6.0799 0.4114758,-0.2749 0.5723519,-0.3689 1.0003344,-0.5841 1.5898468,-0.8001 3.4418048,-1.1033 5.2174648,-0.8542 1.111597,0.1559 2.154376,0.5048 3.113928,1.0421 2.408363,1.3483 4.072248,3.7058 4.525438,6.4115 0.09551,0.5703 0.122953,0.9128 0.122953,1.535 -16.3977244,0 -2.285534,0 -17.981157,0 z"
       style="fill:#ff5555;stroke:none;stroke-width:0;stroke-miterlimit:4;stroke-dasharray:none"
       sodipodi:nodetypes="ccssssccc" />
  </g>
  <g
     inkscape:groupmode="layer"
     id="layer3"
     inkscape:label="Rim"
     style="display:inline;opacity:0.98999999"
     transform="translate(0,-1025.3457)">
    <path
       style="display:inline;fill:#333333;stroke:none;stroke-width:0;stroke-miterlimit:4;stroke-dasharray:none"
       d="M 0.01823524,1033.6348 C 0.00311021,1033.8409 0,1034.0635 0,1034.4196 c 0,0.3564 0.00311021,0.579 0.01823524,0.785 l 17.93800376,0 c 0.01864,-0.2331 0.02543,-0.4751 0.02552,-0.7831 0,-8e-4 -1e-6,0 0,0 -1e-6,0 0,0 0,0 -9.7e-5,-0.3079 -0.0069,-0.548 -0.02552,-0.7812 l -17.93800376,0 z"
       id="path4167-2"
       inkscape:connector-curvature="0" />
  </g>
  <g
     inkscape:label="Circle"
     inkscape:groupmode="layer"
     id="layer1"
     style="display:inline"
     transform="translate(0,-1025.3457)">
    <ellipse
       style="fill:#f9f9f9;stroke:#333333;stroke-width:1.16326213;stroke-miterlimit:4;stroke-dasharray:none;stroke-opacity:1"
       id="path4169"
       cx="8.990613"
       cy="1034.4197"
       rx="2.4712529"
       ry="2.4909565" />
  </g>
</svg>
